<?xml version="1.0" encoding="UTF-8" standalone="no"?>
<!DOCTYPE svg PUBLIC "-//W3C//DTD SVG 1.1//EN"
 "http://www.w3.org/Graphics/SVG/1.1/DTD/svg11.dtd">
<!-- Generated by graphviz version 2.47.0 (20210316.0004)
 -->
<!-- Title: dependencies Pages: 1 -->
<svg width="2125pt" height="284pt"
 viewBox="0.00 0.00 2125.00 284.00" xmlns="http://www.w3.org/2000/svg" xmlns:xlink="http://www.w3.org/1999/xlink">
<g id="graph0" class="graph" transform="scale(1 1) rotate(0) translate(4 280)">
<title>dependencies</title>
<polygon fill="white" stroke="transparent" points="-4,4 -4,-280 2121,-280 2121,4 -4,4"/>
<text text-anchor="start" x="1037.51" y="-42.4" font-family="Times-12" font-weight="bold" font-size="14.00">Legend</text>
<polygon fill="#ffffb3" stroke="transparent" points="824.5,-10 824.5,-30 844.5,-30 844.5,-10 824.5,-10"/>
<text text-anchor="start" x="848.13" y="-15.4" font-family="Times-12" font-size="14.00"> &#160;Declarations</text>
<polygon fill="#8dd3c7" stroke="transparent" points="937.5,-10 937.5,-30 957.5,-30 957.5,-10 937.5,-10"/>
<text text-anchor="start" x="961.23" y="-15.4" font-family="Times-12" font-size="14.00"> &#160;Module</text>
<polygon fill="#80b1d3" stroke="transparent" points="1023.5,-10 1023.5,-30 1043.5,-30 1043.5,-10 1023.5,-10"/>
<text text-anchor="start" x="1047.28" y="-15.4" font-family="Times-12" font-size="14.00"> &#160;Bootstrap</text>
<polygon fill="#fdb462" stroke="transparent" points="1120.5,-10 1120.5,-30 1140.5,-30 1140.5,-10 1120.5,-10"/>
<text text-anchor="start" x="1144.17" y="-15.4" font-family="Times-12" font-size="14.00"> &#160;Providers</text>
<polygon fill="#fb8072" stroke="transparent" points="1216.5,-10 1216.5,-30 1236.5,-30 1236.5,-10 1216.5,-10"/>
<text text-anchor="start" x="1240.23" y="-15.4" font-family="Times-12" font-size="14.00"> &#160;Exports</text>
<g id="clust1" class="cluster">
<title>cluster_AppModule</title>
<polygon fill="none" stroke="black" stroke-dasharray="1,5" points="8,-70 8,-268 2109,-268 2109,-70 8,-70"/>
</g>
<g id="clust17" class="cluster">
<title>cluster_AppModule_providers</title>
<polygon fill="none" stroke="black" points="1901,-78 1901,-130 2101,-130 2101,-78 1901,-78"/>
</g>
<g id="clust14" class="cluster">
<title>cluster_AppModule_imports</title>
<polygon fill="none" stroke="black" points="1749,-78 1749,-130 1893,-130 1893,-78 1749,-78"/>
</g>
<g id="clust16" class="cluster">
<title>cluster_AppModule_bootstrap</title>
<polygon fill="none" stroke="black" points="1017,-208 1017,-260 1141,-260 1141,-208 1017,-208"/>
</g>
<g id="clust2" class="cluster">
<title>cluster_AppModule_declarations</title>
<polygon fill="none" stroke="black" points="16,-78 16,-130 1741,-130 1741,-78 16,-78"/>
</g>
<!-- AppComponent -->
<g id="node1" class="node">
<title>AppComponent</title>
<polygon fill="#ffffb3" stroke="black" points="1732.94,-122 1627.06,-122 1627.06,-86 1732.94,-86 1732.94,-122"/>
<text text-anchor="middle" x="1680" y="-99.8" font-family="Times,serif" font-size="14.00">AppComponent</text>
</g>
<!-- AppModule -->
<g id="node12" class="node">
<title>AppModule</title>
<polygon fill="#8dd3c7" stroke="black" points="1120.66,-187 1117.66,-191 1096.66,-191 1093.66,-187 1037.34,-187 1037.34,-151 1120.66,-151 1120.66,-187"/>
<text text-anchor="middle" x="1079" y="-164.8" font-family="Times,serif" font-size="14.00">AppModule</text>
</g>
<!-- AppComponent&#45;&gt;AppModule -->
<g id="edge1" class="edge">
<title>AppComponent&#45;&gt;AppModule</title>
<path fill="none" stroke="black" d="M1680,-122.22C1680,-142.37 1680,-172 1680,-172 1680,-172 1130.78,-172 1130.78,-172"/>
<polygon fill="black" stroke="black" points="1130.78,-168.5 1120.78,-172 1130.78,-175.5 1130.78,-168.5"/>
</g>
<!-- DropdownDirective -->
<g id="node2" class="node">
<title>DropdownDirective</title>
<polygon fill="#ffffb3" stroke="black" points="1608.96,-122 1481.04,-122 1481.04,-86 1608.96,-86 1608.96,-122"/>
<text text-anchor="middle" x="1545" y="-99.8" font-family="Times,serif" font-size="14.00">DropdownDirective</text>
</g>
<!-- DropdownDirective&#45;&gt;AppModule -->
<g id="edge2" class="edge">
<title>DropdownDirective&#45;&gt;AppModule</title>
<path fill="none" stroke="black" d="M1545,-122.22C1545,-140.83 1545,-167 1545,-167 1545,-167 1130.76,-167 1130.76,-167"/>
<polygon fill="black" stroke="black" points="1130.76,-163.5 1120.76,-167 1130.76,-170.5 1130.76,-163.5"/>
</g>
<!-- HeaderComponent -->
<g id="node3" class="node">
<title>HeaderComponent</title>
<polygon fill="#ffffb3" stroke="black" points="1462.74,-122 1341.26,-122 1341.26,-86 1462.74,-86 1462.74,-122"/>
<text text-anchor="middle" x="1402" y="-99.8" font-family="Times,serif" font-size="14.00">HeaderComponent</text>
</g>
<!-- HeaderComponent&#45;&gt;AppModule -->
<g id="edge3" class="edge">
<title>HeaderComponent&#45;&gt;AppModule</title>
<path fill="none" stroke="black" d="M1402,-122.03C1402,-139.06 1402,-162 1402,-162 1402,-162 1130.9,-162 1130.9,-162"/>
<polygon fill="black" stroke="black" points="1130.9,-158.5 1120.9,-162 1130.9,-165.5 1130.9,-158.5"/>
</g>
<!-- RecipeDetailComponent -->
<g id="node4" class="node">
<title>RecipeDetailComponent</title>
<polygon fill="#ffffb3" stroke="black" points="1323.41,-122 1168.59,-122 1168.59,-86 1323.41,-86 1323.41,-122"/>
<text text-anchor="middle" x="1246" y="-99.8" font-family="Times,serif" font-size="14.00">RecipeDetailComponent</text>
</g>
<!-- RecipeDetailComponent&#45;&gt;AppModule -->
<g id="edge4" class="edge">
<title>RecipeDetailComponent&#45;&gt;AppModule</title>
<path fill="none" stroke="black" d="M1246,-122.24C1246,-137.57 1246,-157 1246,-157 1246,-157 1130.71,-157 1130.71,-157"/>
<polygon fill="black" stroke="black" points="1130.71,-153.5 1120.71,-157 1130.71,-160.5 1130.71,-153.5"/>
</g>
<!-- RecipeEditComponent -->
<g id="node5" class="node">
<title>RecipeEditComponent</title>
<polygon fill="#ffffb3" stroke="black" points="1150.54,-122 1007.46,-122 1007.46,-86 1150.54,-86 1150.54,-122"/>
<text text-anchor="middle" x="1079" y="-99.8" font-family="Times,serif" font-size="14.00">RecipeEditComponent</text>
</g>
<!-- RecipeEditComponent&#45;&gt;AppModule -->
<g id="edge5" class="edge">
<title>RecipeEditComponent&#45;&gt;AppModule</title>
<path fill="none" stroke="black" d="M1079,-122.11C1079,-122.11 1079,-140.99 1079,-140.99"/>
<polygon fill="black" stroke="black" points="1075.5,-140.99 1079,-150.99 1082.5,-140.99 1075.5,-140.99"/>
</g>
<!-- RecipeItemComponent -->
<g id="node6" class="node">
<title>RecipeItemComponent</title>
<polygon fill="#ffffb3" stroke="black" points="988.86,-122 843.14,-122 843.14,-86 988.86,-86 988.86,-122"/>
<text text-anchor="middle" x="916" y="-99.8" font-family="Times,serif" font-size="14.00">RecipeItemComponent</text>
</g>
<!-- RecipeItemComponent&#45;&gt;AppModule -->
<g id="edge6" class="edge">
<title>RecipeItemComponent&#45;&gt;AppModule</title>
<path fill="none" stroke="black" d="M916,-122.24C916,-137.57 916,-157 916,-157 916,-157 1027.02,-157 1027.02,-157"/>
<polygon fill="black" stroke="black" points="1027.02,-160.5 1037.02,-157 1027.02,-153.5 1027.02,-160.5"/>
</g>
<!-- RecipeListComponent -->
<g id="node7" class="node">
<title>RecipeListComponent</title>
<polygon fill="#ffffb3" stroke="black" points="824.98,-122 683.02,-122 683.02,-86 824.98,-86 824.98,-122"/>
<text text-anchor="middle" x="754" y="-99.8" font-family="Times,serif" font-size="14.00">RecipeListComponent</text>
</g>
<!-- RecipeListComponent&#45;&gt;AppModule -->
<g id="edge7" class="edge">
<title>RecipeListComponent&#45;&gt;AppModule</title>
<path fill="none" stroke="black" d="M754,-122.03C754,-139.06 754,-162 754,-162 754,-162 1027.18,-162 1027.18,-162"/>
<polygon fill="black" stroke="black" points="1027.18,-165.5 1037.18,-162 1027.18,-158.5 1027.18,-165.5"/>
</g>
<!-- RecipeStartComponent -->
<g id="node8" class="node">
<title>RecipeStartComponent</title>
<polygon fill="#ffffb3" stroke="black" points="665.14,-122 518.86,-122 518.86,-86 665.14,-86 665.14,-122"/>
<text text-anchor="middle" x="592" y="-99.8" font-family="Times,serif" font-size="14.00">RecipeStartComponent</text>
</g>
<!-- RecipeStartComponent&#45;&gt;AppModule -->
<g id="edge8" class="edge">
<title>RecipeStartComponent&#45;&gt;AppModule</title>
<path fill="none" stroke="black" d="M592,-122.22C592,-140.83 592,-167 592,-167 592,-167 1027.06,-167 1027.06,-167"/>
<polygon fill="black" stroke="black" points="1027.06,-170.5 1037.06,-167 1027.06,-163.5 1027.06,-170.5"/>
</g>
<!-- RecipesComponent -->
<g id="node9" class="node">
<title>RecipesComponent</title>
<polygon fill="#ffffb3" stroke="black" points="500.65,-122 375.35,-122 375.35,-86 500.65,-86 500.65,-122"/>
<text text-anchor="middle" x="438" y="-99.8" font-family="Times,serif" font-size="14.00">RecipesComponent</text>
</g>
<!-- RecipesComponent&#45;&gt;AppModule -->
<g id="edge9" class="edge">
<title>RecipesComponent&#45;&gt;AppModule</title>
<path fill="none" stroke="black" d="M438,-122.22C438,-142.37 438,-172 438,-172 438,-172 1026.94,-172 1026.94,-172"/>
<polygon fill="black" stroke="black" points="1026.94,-175.5 1036.94,-172 1026.94,-168.5 1026.94,-175.5"/>
</g>
<!-- ShoppingEditComponent -->
<g id="node10" class="node">
<title>ShoppingEditComponent</title>
<polygon fill="#ffffb3" stroke="black" points="357.34,-122 198.66,-122 198.66,-86 357.34,-86 357.34,-122"/>
<text text-anchor="middle" x="278" y="-99.8" font-family="Times,serif" font-size="14.00">ShoppingEditComponent</text>
</g>
<!-- ShoppingEditComponent&#45;&gt;AppModule -->
<g id="edge10" class="edge">
<title>ShoppingEditComponent&#45;&gt;AppModule</title>
<path fill="none" stroke="black" d="M278,-122.04C278,-143.66 278,-177 278,-177 278,-177 1027.34,-177 1027.34,-177"/>
<polygon fill="black" stroke="black" points="1027.34,-180.5 1037.34,-177 1027.34,-173.5 1027.34,-180.5"/>
</g>
<!-- ShoppingListComponent -->
<g id="node11" class="node">
<title>ShoppingListComponent</title>
<polygon fill="#ffffb3" stroke="black" points="180.28,-122 23.72,-122 23.72,-86 180.28,-86 180.28,-122"/>
<text text-anchor="middle" x="102" y="-99.8" font-family="Times,serif" font-size="14.00">ShoppingListComponent</text>
</g>
<!-- ShoppingListComponent&#45;&gt;AppModule -->
<g id="edge11" class="edge">
<title>ShoppingListComponent&#45;&gt;AppModule</title>
<path fill="none" stroke="black" d="M102,-122.09C102,-145.13 102,-182 102,-182 102,-182 1027.33,-182 1027.33,-182"/>
<polygon fill="black" stroke="black" points="1027.33,-185.5 1037.33,-182 1027.33,-178.5 1027.33,-185.5"/>
</g>
<!-- AppComponent  -->
<g id="node14" class="node">
<title>AppComponent </title>
<polygon fill="#80b1d3" stroke="black" points="1133.44,-252 1024.56,-252 1024.56,-216 1133.44,-216 1133.44,-252"/>
<text text-anchor="middle" x="1079" y="-229.8" font-family="Times,serif" font-size="14.00">AppComponent </text>
</g>
<!-- AppModule&#45;&gt;AppComponent  -->
<g id="edge13" class="edge">
<title>AppModule&#45;&gt;AppComponent </title>
<path fill="none" stroke="black" stroke-dasharray="1,5" d="M1079,-187.11C1079,-187.11 1079,-205.99 1079,-205.99"/>
<polygon fill="black" stroke="black" points="1075.5,-205.99 1079,-215.99 1082.5,-205.99 1075.5,-205.99"/>
</g>
<!-- AppRoutingModule -->
<g id="node13" class="node">
<title>AppRoutingModule</title>
<polygon fill="#8dd3c7" stroke="black" points="1885.27,-122 1882.27,-126 1861.27,-126 1858.27,-122 1756.73,-122 1756.73,-86 1885.27,-86 1885.27,-122"/>
<text text-anchor="middle" x="1821" y="-99.8" font-family="Times,serif" font-size="14.00">AppRoutingModule</text>
</g>
<!-- AppRoutingModule&#45;&gt;AppModule -->
<g id="edge12" class="edge">
<title>AppRoutingModule&#45;&gt;AppModule</title>
<path fill="none" stroke="black" d="M1821,-122.04C1821,-143.66 1821,-177 1821,-177 1821,-177 1130.75,-177 1130.75,-177"/>
<polygon fill="black" stroke="black" points="1130.75,-173.5 1120.75,-177 1130.75,-180.5 1130.75,-173.5"/>
</g>
<!-- ShoppingListService -->
<g id="node15" class="node">
<title>ShoppingListService</title>
<ellipse fill="#fdb462" stroke="black" cx="2001" cy="-104" rx="92.07" ry="18"/>
<text text-anchor="middle" x="2001" y="-99.8" font-family="Times,serif" font-size="14.00">ShoppingListService</text>
</g>
<!-- ShoppingListService&#45;&gt;AppModule -->
<g id="edge14" class="edge">
<title>ShoppingListService&#45;&gt;AppModule</title>
<path fill="none" stroke="black" d="M2001,-122.09C2001,-145.13 2001,-182 2001,-182 2001,-182 1130.71,-182 1130.71,-182"/>
<polygon fill="black" stroke="black" points="1130.71,-178.5 1120.71,-182 1130.71,-185.5 1130.71,-178.5"/>
</g>
</g>
</svg>
