<?xml version="1.0" encoding="UTF-8" standalone="no"?>
<!DOCTYPE svg PUBLIC "-//W3C//DTD SVG 1.1//EN"
 "http://www.w3.org/Graphics/SVG/1.1/DTD/svg11.dtd">
<!-- Generated by graphviz version 2.47.0 (20210316.0004)
 -->
<!-- Title: dependencies Pages: 1 -->
<svg width="2125pt" height="284pt"
 viewBox="0.00 0.00 2125.00 284.00" xmlns="http://www.w3.org/2000/svg" xmlns:xlink="http://www.w3.org/1999/xlink">
<g id="graph0" class="graph" transform="scale(1 1) rotate(0) translate(4 280)">
<title>dependencies</title>
<polygon fill="white" stroke="transparent" points="-4,4 -4,-280 2121,-280 2121,4 -4,4"/>
<text text-anchor="start" x="1037.51" y="-42.4" font-family="Times-12" font-weight="bold" font-size="14.00">Legend</text>
<polygon fill="#ffffb3" stroke="transparent" points="824.5,-10 824.5,-30 844.5,-30 844.5,-10 824.5,-10"/>
<text text-anchor="start" x="848.13" y="-15.4" font-family="Times-12" font-size="14.00"> &#160;Declarations</text>
<polygon fill="#8dd3c7" stroke="transparent" points="937.5,-10 937.5,-30 957.5,-30 957.5,-10 937.5,-10"/>
<text text-anchor="start" x="961.23" y="-15.4" font-family="Times-12" font-size="14.00"> &#160;Module</text>
<polygon fill="#80b1d3" stroke="transparent" points="1023.5,-10 1023.5,-30 1043.5,-30 1043.5,-10 1023.5,-10"/>
<text text-anchor="start" x="1047.28" y="-15.4" font-family="Times-12" font-size="14.00"> &#160;Bootstrap</text>
<polygon fill="#fdb462" stroke="transparent" points="1120.5,-10 1120.5,-30 1140.5,-30 1140.5,-10 1120.5,-10"/>
<text text-anchor="start" x="1144.17" y="-15.4" font-family="Times-12" font-size="14.00"> &#160;Providers</text>
<polygon fill="#fb8072" stroke="transparent" points="1216.5,-10 1216.5,-30 1236.5,-30 1236.5,-10 1216.5,-10"/>
<text text-anchor="start" x="1240.23" y="-15.4" font-family="Times-12" font-size="14.00"> &#160;Exports</text>
<g id="clust1" class="cluster">
<title>cluster_AppModule</title>
<polygon fill="none" stroke="black" stroke-dasharray="1,5" points="8,-70 8,-268 2109,-268 2109,-70 8,-70"/>
</g>
<g id="clust2" class="cluster">
<title>cluster_AppModule_declarations</title>
<polygon fill="none" stroke="black" points="376,-78 376,-130 2101,-130 2101,-78 376,-78"/>
</g>
<g id="clust14" class="cluster">
<title>cluster_AppModule_imports</title>
<polygon fill="none" stroke="black" points="224,-78 224,-130 368,-130 368,-78 224,-78"/>
</g>
<g id="clust16" class="cluster">
<title>cluster_AppModule_bootstrap</title>
<polygon fill="none" stroke="black" points="1052,-208 1052,-260 1176,-260 1176,-208 1052,-208"/>
</g>
<g id="clust17" class="cluster">
<title>cluster_AppModule_providers</title>
<polygon fill="none" stroke="black" points="16,-78 16,-130 216,-130 216,-78 16,-78"/>
</g>
<!-- AppComponent -->
<g id="node1" class="node">
<title>AppComponent</title>
<polygon fill="#ffffb3" stroke="black" points="2092.94,-122 1987.06,-122 1987.06,-86 2092.94,-86 2092.94,-122"/>
<text text-anchor="middle" x="2040" y="-99.8" font-family="Times,serif" font-size="14.00">AppComponent</text>
</g>
<!-- AppModule -->
<g id="node12" class="node">
<title>AppModule</title>
<polygon fill="#8dd3c7" stroke="black" points="1155.66,-187 1152.66,-191 1131.66,-191 1128.66,-187 1072.34,-187 1072.34,-151 1155.66,-151 1155.66,-187"/>
<text text-anchor="middle" x="1114" y="-164.8" font-family="Times,serif" font-size="14.00">AppModule</text>
</g>
<!-- AppComponent&#45;&gt;AppModule -->
<g id="edge1" class="edge">
<title>AppComponent&#45;&gt;AppModule</title>
<path fill="none" stroke="black" d="M2040,-122.09C2040,-145.13 2040,-182 2040,-182 2040,-182 1165.89,-182 1165.89,-182"/>
<polygon fill="black" stroke="black" points="1165.89,-178.5 1155.89,-182 1165.89,-185.5 1165.89,-178.5"/>
</g>
<!-- DropdownDirective -->
<g id="node2" class="node">
<title>DropdownDirective</title>
<polygon fill="#ffffb3" stroke="black" points="1968.96,-122 1841.04,-122 1841.04,-86 1968.96,-86 1968.96,-122"/>
<text text-anchor="middle" x="1905" y="-99.8" font-family="Times,serif" font-size="14.00">DropdownDirective</text>
</g>
<!-- DropdownDirective&#45;&gt;AppModule -->
<g id="edge2" class="edge">
<title>DropdownDirective&#45;&gt;AppModule</title>
<path fill="none" stroke="black" d="M1905,-122.04C1905,-143.66 1905,-177 1905,-177 1905,-177 1165.69,-177 1165.69,-177"/>
<polygon fill="black" stroke="black" points="1165.69,-173.5 1155.69,-177 1165.69,-180.5 1165.69,-173.5"/>
</g>
<!-- HeaderComponent -->
<g id="node3" class="node">
<title>HeaderComponent</title>
<polygon fill="#ffffb3" stroke="black" points="1822.74,-122 1701.26,-122 1701.26,-86 1822.74,-86 1822.74,-122"/>
<text text-anchor="middle" x="1762" y="-99.8" font-family="Times,serif" font-size="14.00">HeaderComponent</text>
</g>
<!-- HeaderComponent&#45;&gt;AppModule -->
<g id="edge3" class="edge">
<title>HeaderComponent&#45;&gt;AppModule</title>
<path fill="none" stroke="black" d="M1762,-122.22C1762,-142.37 1762,-172 1762,-172 1762,-172 1166.02,-172 1166.02,-172"/>
<polygon fill="black" stroke="black" points="1166.02,-168.5 1156.02,-172 1166.02,-175.5 1166.02,-168.5"/>
</g>
<!-- RecipeDetailComponent -->
<g id="node4" class="node">
<title>RecipeDetailComponent</title>
<polygon fill="#ffffb3" stroke="black" points="1683.41,-122 1528.59,-122 1528.59,-86 1683.41,-86 1683.41,-122"/>
<text text-anchor="middle" x="1606" y="-99.8" font-family="Times,serif" font-size="14.00">RecipeDetailComponent</text>
</g>
<!-- RecipeDetailComponent&#45;&gt;AppModule -->
<g id="edge4" class="edge">
<title>RecipeDetailComponent&#45;&gt;AppModule</title>
<path fill="none" stroke="black" d="M1606,-122.22C1606,-140.83 1606,-167 1606,-167 1606,-167 1165.95,-167 1165.95,-167"/>
<polygon fill="black" stroke="black" points="1165.95,-163.5 1155.95,-167 1165.95,-170.5 1165.95,-163.5"/>
</g>
<!-- RecipeEditComponent -->
<g id="node5" class="node">
<title>RecipeEditComponent</title>
<polygon fill="#ffffb3" stroke="black" points="1510.54,-122 1367.46,-122 1367.46,-86 1510.54,-86 1510.54,-122"/>
<text text-anchor="middle" x="1439" y="-99.8" font-family="Times,serif" font-size="14.00">RecipeEditComponent</text>
</g>
<!-- RecipeEditComponent&#45;&gt;AppModule -->
<g id="edge5" class="edge">
<title>RecipeEditComponent&#45;&gt;AppModule</title>
<path fill="none" stroke="black" d="M1439,-122.03C1439,-139.06 1439,-162 1439,-162 1439,-162 1165.82,-162 1165.82,-162"/>
<polygon fill="black" stroke="black" points="1165.82,-158.5 1155.82,-162 1165.82,-165.5 1165.82,-158.5"/>
</g>
<!-- RecipeItemComponent -->
<g id="node6" class="node">
<title>RecipeItemComponent</title>
<polygon fill="#ffffb3" stroke="black" points="1348.86,-122 1203.14,-122 1203.14,-86 1348.86,-86 1348.86,-122"/>
<text text-anchor="middle" x="1276" y="-99.8" font-family="Times,serif" font-size="14.00">RecipeItemComponent</text>
</g>
<!-- RecipeItemComponent&#45;&gt;AppModule -->
<g id="edge6" class="edge">
<title>RecipeItemComponent&#45;&gt;AppModule</title>
<path fill="none" stroke="black" d="M1276,-122.24C1276,-137.57 1276,-157 1276,-157 1276,-157 1165.72,-157 1165.72,-157"/>
<polygon fill="black" stroke="black" points="1165.72,-153.5 1155.72,-157 1165.72,-160.5 1165.72,-153.5"/>
</g>
<!-- RecipeListComponent -->
<g id="node7" class="node">
<title>RecipeListComponent</title>
<polygon fill="#ffffb3" stroke="black" points="1184.98,-122 1043.02,-122 1043.02,-86 1184.98,-86 1184.98,-122"/>
<text text-anchor="middle" x="1114" y="-99.8" font-family="Times,serif" font-size="14.00">RecipeListComponent</text>
</g>
<!-- RecipeListComponent&#45;&gt;AppModule -->
<g id="edge7" class="edge">
<title>RecipeListComponent&#45;&gt;AppModule</title>
<path fill="none" stroke="black" d="M1114,-122.11C1114,-122.11 1114,-140.99 1114,-140.99"/>
<polygon fill="black" stroke="black" points="1110.5,-140.99 1114,-150.99 1117.5,-140.99 1110.5,-140.99"/>
</g>
<!-- RecipeStartComponent -->
<g id="node8" class="node">
<title>RecipeStartComponent</title>
<polygon fill="#ffffb3" stroke="black" points="1025.14,-122 878.86,-122 878.86,-86 1025.14,-86 1025.14,-122"/>
<text text-anchor="middle" x="952" y="-99.8" font-family="Times,serif" font-size="14.00">RecipeStartComponent</text>
</g>
<!-- RecipeStartComponent&#45;&gt;AppModule -->
<g id="edge8" class="edge">
<title>RecipeStartComponent&#45;&gt;AppModule</title>
<path fill="none" stroke="black" d="M952,-122.24C952,-137.57 952,-157 952,-157 952,-157 1062.28,-157 1062.28,-157"/>
<polygon fill="black" stroke="black" points="1062.28,-160.5 1072.28,-157 1062.28,-153.5 1062.28,-160.5"/>
</g>
<!-- RecipesComponent -->
<g id="node9" class="node">
<title>RecipesComponent</title>
<polygon fill="#ffffb3" stroke="black" points="860.65,-122 735.35,-122 735.35,-86 860.65,-86 860.65,-122"/>
<text text-anchor="middle" x="798" y="-99.8" font-family="Times,serif" font-size="14.00">RecipesComponent</text>
</g>
<!-- RecipesComponent&#45;&gt;AppModule -->
<g id="edge9" class="edge">
<title>RecipesComponent&#45;&gt;AppModule</title>
<path fill="none" stroke="black" d="M798,-122.03C798,-139.06 798,-162 798,-162 798,-162 1062.04,-162 1062.04,-162"/>
<polygon fill="black" stroke="black" points="1062.04,-165.5 1072.04,-162 1062.04,-158.5 1062.04,-165.5"/>
</g>
<!-- ShoppingEditComponent -->
<g id="node10" class="node">
<title>ShoppingEditComponent</title>
<polygon fill="#ffffb3" stroke="black" points="717.34,-122 558.66,-122 558.66,-86 717.34,-86 717.34,-122"/>
<text text-anchor="middle" x="638" y="-99.8" font-family="Times,serif" font-size="14.00">ShoppingEditComponent</text>
</g>
<!-- ShoppingEditComponent&#45;&gt;AppModule -->
<g id="edge10" class="edge">
<title>ShoppingEditComponent&#45;&gt;AppModule</title>
<path fill="none" stroke="black" d="M638,-122.22C638,-140.83 638,-167 638,-167 638,-167 1062.18,-167 1062.18,-167"/>
<polygon fill="black" stroke="black" points="1062.18,-170.5 1072.18,-167 1062.18,-163.5 1062.18,-170.5"/>
</g>
<!-- ShoppingListComponent -->
<g id="node11" class="node">
<title>ShoppingListComponent</title>
<polygon fill="#ffffb3" stroke="black" points="540.28,-122 383.72,-122 383.72,-86 540.28,-86 540.28,-122"/>
<text text-anchor="middle" x="462" y="-99.8" font-family="Times,serif" font-size="14.00">ShoppingListComponent</text>
</g>
<!-- ShoppingListComponent&#45;&gt;AppModule -->
<g id="edge11" class="edge">
<title>ShoppingListComponent&#45;&gt;AppModule</title>
<path fill="none" stroke="black" d="M462,-122.22C462,-142.37 462,-172 462,-172 462,-172 1062.22,-172 1062.22,-172"/>
<polygon fill="black" stroke="black" points="1062.22,-175.5 1072.22,-172 1062.22,-168.5 1062.22,-175.5"/>
</g>
<!-- AppComponent  -->
<g id="node14" class="node">
<title>AppComponent </title>
<polygon fill="#80b1d3" stroke="black" points="1168.44,-252 1059.56,-252 1059.56,-216 1168.44,-216 1168.44,-252"/>
<text text-anchor="middle" x="1114" y="-229.8" font-family="Times,serif" font-size="14.00">AppComponent </text>
</g>
<!-- AppModule&#45;&gt;AppComponent  -->
<g id="edge13" class="edge">
<title>AppModule&#45;&gt;AppComponent </title>
<path fill="none" stroke="black" stroke-dasharray="1,5" d="M1114,-187.11C1114,-187.11 1114,-205.99 1114,-205.99"/>
<polygon fill="black" stroke="black" points="1110.5,-205.99 1114,-215.99 1117.5,-205.99 1110.5,-205.99"/>
</g>
<!-- AppRoutingModule -->
<g id="node13" class="node">
<title>AppRoutingModule</title>
<polygon fill="#8dd3c7" stroke="black" points="360.27,-122 357.27,-126 336.27,-126 333.27,-122 231.73,-122 231.73,-86 360.27,-86 360.27,-122"/>
<text text-anchor="middle" x="296" y="-99.8" font-family="Times,serif" font-size="14.00">AppRoutingModule</text>
</g>
<!-- AppRoutingModule&#45;&gt;AppModule -->
<g id="edge12" class="edge">
<title>AppRoutingModule&#45;&gt;AppModule</title>
<path fill="none" stroke="black" d="M296,-122.04C296,-143.66 296,-177 296,-177 296,-177 1062.31,-177 1062.31,-177"/>
<polygon fill="black" stroke="black" points="1062.31,-180.5 1072.31,-177 1062.31,-173.5 1062.31,-180.5"/>
</g>
<!-- ShoppingListService -->
<g id="node15" class="node">
<title>ShoppingListService</title>
<ellipse fill="#fdb462" stroke="black" cx="116" cy="-104" rx="92.07" ry="18"/>
<text text-anchor="middle" x="116" y="-99.8" font-family="Times,serif" font-size="14.00">ShoppingListService</text>
</g>
<!-- ShoppingListService&#45;&gt;AppModule -->
<g id="edge14" class="edge">
<title>ShoppingListService&#45;&gt;AppModule</title>
<path fill="none" stroke="black" d="M116,-122.09C116,-145.13 116,-182 116,-182 116,-182 1062.07,-182 1062.07,-182"/>
<polygon fill="black" stroke="black" points="1062.07,-185.5 1072.07,-182 1062.07,-178.5 1062.07,-185.5"/>
</g>
</g>
</svg>
